<svg xmlns="http://www.w3.org/2000/svg" width="256" height="256" viewBox="0 0 256 256"><path fill="#395DAA" d="M0 0v256h255.597V0H0zm249.117 249.5H6.882V6.5h242.235v243z"/><path fill="#FFF" d="M6.882 6.5h242.235v243H6.882z"/><path fill="#E12228" d="M128 180.678l-2.09-1.705c-45.84-37.332-58.255-50.472-58.255-71.82 0-17.55 14.28-31.83 31.832-31.83 14.668 0 22.956 8.33 28.515 14.596 5.556-6.267 13.847-14.598 28.516-14.598 17.55 0 31.828 14.28 31.828 31.83 0 21.35-12.415 34.49-58.252 71.82L128 180.68zM99.487 81.953c-13.896 0-25.202 11.306-25.202 25.2 0 18.29 11.51 30.515 53.716 64.97 42.205-34.455 53.713-46.682 53.713-64.97 0-13.894-11.305-25.2-25.197-25.2-12.726 0-19.367 7.575-24.7 13.663L128 99.902l-3.817-4.286c-5.333-6.088-11.975-13.663-24.697-13.663z"/><path fill="#60BE79" d="M47.065 162.6L12.465 128l34.6-34.6 5.04 5.04-29.56 29.56 29.56 29.557-5.04 5.04M208.938 162.6l-5.04-5.04L233.455 128l-29.56-29.56 5.042-5.04 34.596 34.6-34.596 34.597"/></svg>